<?xml version="1.0" encoding="utf-8"?>
<!-- Generator: Adobe Illustrator 13.0.0, SVG Export Plug-In . SVG Version: 6.00 Build 14948)  -->
<!DOCTYPE svg PUBLIC "-//W3C//DTD SVG 1.1//EN" "http://www.w3.org/Graphics/SVG/1.1/DTD/svg11.dtd">
<svg version="1.1" id="Calque_1" xmlns="http://www.w3.org/2000/svg" xmlns:xlink="http://www.w3.org/1999/xlink" x="0px" y="0px"
	 width="612px" height="792px" viewBox="0 0 612 792" enable-background="new 0 0 612 792" xml:space="preserve">
<path fill="#FFFFFF" d="M284.934,141.586V97.562h-15.935V91.89c2.16,0,4.051-0.27,5.941-0.54c1.891-0.27,3.781-0.811,5.401-1.891
	c1.621-0.811,2.972-2.16,4.052-3.511c1.08-1.62,1.891-3.511,2.16-5.672h5.672v61.309H284.934z M308.16,93.241
	c0.811-2.701,2.16-4.861,3.781-6.752c1.62-1.891,3.781-3.511,6.481-4.592c2.431-1.08,5.402-1.62,8.643-1.62
	c2.701,0,5.132,0.271,7.563,1.08c2.431,0.811,4.321,1.891,6.212,3.241c1.62,1.351,2.971,3.241,4.051,5.401
	c1.081,2.161,1.621,4.592,1.621,7.563c0,2.701-0.54,5.132-1.351,7.292c-0.811,2.161-1.891,4.052-3.241,5.672
	s-2.971,3.241-4.861,4.321c-1.891,1.351-3.511,2.701-5.401,3.781s-3.781,2.16-5.672,3.511s-3.511,2.431-5.132,3.511
	c-1.62,1.351-2.971,2.701-4.051,4.052s-1.891,3.241-2.161,5.131h31.33v6.482H306c0.27-3.511,0.81-6.752,1.89-9.183
	c1.081-2.431,2.161-4.861,3.781-6.752c1.621-1.891,3.241-3.511,5.401-5.132c1.891-1.351,4.052-2.7,6.212-4.051
	c2.701-1.621,4.862-2.971,6.752-4.321c1.891-1.351,3.512-2.701,4.862-4.052c1.35-1.35,2.16-2.971,2.971-4.591
	c0.81-1.621,1.08-3.511,1.08-5.672c0-1.62-0.271-3.241-1.08-4.592c-0.54-1.35-1.351-2.431-2.431-3.511
	c-1.081-1.08-2.431-1.62-3.781-2.16s-2.971-0.811-4.592-0.811c-2.16,0-4.051,0.54-5.401,1.351c-1.62,0.81-2.701,2.16-3.781,3.511
	s-1.62,2.971-2.16,4.861s-0.54,3.512-0.54,5.401h-7.293C307.08,98.913,307.35,95.942,308.16,93.241z M449.682,183.448v-44.023
	h-15.935v-5.941c2.161,0,4.051-0.271,5.941-0.54c1.891-0.271,3.781-0.811,5.402-1.891c1.62-0.811,2.971-2.161,4.051-3.512
	c1.08-1.62,1.891-3.511,2.161-5.671h5.671v61.308h-7.292V183.448z M537.188,240.164c0.811-2.7,2.16-4.861,3.781-6.752
	c1.62-1.891,3.781-3.511,6.481-4.591c2.431-1.08,5.401-1.621,8.643-1.621c2.701,0,5.132,0.271,7.563,1.081
	c2.431,0.81,4.321,1.891,6.212,3.24c1.62,1.351,2.971,3.241,4.051,5.402c1.08,2.16,1.621,4.591,1.621,7.562
	c0,2.701-0.54,5.132-1.351,7.293c-0.811,2.16-1.891,4.051-3.241,5.671c-1.351,1.621-2.971,3.241-4.861,4.321
	c-1.891,1.351-3.511,2.701-5.401,3.781s-3.781,2.161-5.672,3.511c-1.891,1.351-3.511,2.432-5.132,3.512
	c-1.62,1.351-2.971,2.7-4.051,4.051s-1.891,3.241-2.161,5.132h31.33v6.481h-40.242c0.271-3.511,0.811-6.752,1.891-9.183
	s2.16-4.861,3.781-6.752c1.62-1.891,3.24-3.511,5.401-5.131c1.891-1.351,4.051-2.701,6.212-4.052c2.7-1.62,4.861-2.971,6.752-4.321
	s3.511-2.7,4.861-4.051s2.161-2.971,2.971-4.592c0.811-1.62,1.08-3.511,1.08-5.672c0-1.62-0.27-3.24-1.08-4.591
	c-0.54-1.351-1.351-2.431-2.431-3.511c-1.08-1.081-2.431-1.621-3.781-2.161c-1.35-0.54-2.971-0.811-4.591-0.811
	c-2.161,0-4.052,0.54-5.401,1.351c-1.621,0.811-2.701,2.161-3.781,3.511c-1.081,1.351-1.621,2.972-2.161,4.862
	s-0.54,3.511-0.54,5.401h-7.292C536.108,245.566,536.377,242.865,537.188,240.164L537.188,240.164z M587.693,391.138h2.431
	c1.62,0,2.971-0.27,4.321-0.54s2.701-1.08,3.781-1.891s1.891-1.891,2.431-3.241c0.54-1.35,1.08-2.7,1.08-4.321
	c0-3.24-1.08-5.671-3.241-7.292c-2.16-1.62-4.591-2.431-7.832-2.431c-1.891,0-3.781,0.271-5.132,1.08
	c-1.35,0.811-2.7,1.621-3.511,2.972c-1.08,1.08-1.62,2.7-2.16,4.321c-0.54,1.62-0.811,3.24-0.811,5.131h-7.292
	c0-2.971,0.54-5.671,1.351-8.103c0.81-2.431,2.16-4.591,3.511-6.211c1.62-1.621,3.511-2.972,5.941-4.052s5.132-1.351,8.103-1.351
	c2.701,0,5.132,0.271,7.292,1.081c2.161,0.81,4.321,1.62,5.942,2.971c1.62,1.351,2.971,2.971,4.051,5.131
	c1.08,2.161,1.351,4.592,1.351,7.293c0,2.7-0.811,5.131-2.431,7.292c-1.621,2.16-3.511,3.781-5.942,4.861v0.27
	c3.781,0.811,6.482,2.701,8.373,5.402c1.891,2.7,2.701,5.941,2.701,9.723c0,2.971-0.541,5.672-1.621,8.103s-2.701,4.321-4.591,5.941
	c-1.891,1.621-4.052,2.701-6.752,3.511c-2.701,0.811-5.402,1.081-8.103,1.081c-3.241,0-5.942-0.54-8.373-1.351
	s-4.591-2.161-6.481-3.781c-1.891-1.621-3.241-3.781-4.052-6.212c-1.08-2.431-1.35-5.401-1.35-8.372h7.292
	c0,4.051,1.351,7.292,3.511,9.723c2.161,2.431,5.401,3.781,9.723,3.781c1.891,0,3.512-0.271,5.132-0.811s2.971-1.351,4.321-2.431
	s2.16-2.161,2.971-3.781s1.08-3.241,1.08-4.861c0-1.891-0.27-3.511-1.08-5.132c-0.811-1.62-1.62-2.7-2.701-3.781
	c-1.08-1.08-2.431-1.891-4.051-2.16c-1.62-0.271-3.241-0.811-5.132-0.811c-1.62,0-2.971,0-4.321,0.271v-7.292
	C587.153,391.138,587.422,391.138,587.693,391.138L587.693,391.138z M578.51,549.676v6.481h-8.373v14.314h-7.021v-14.314h-27.008
	v-7.021l27.818-39.972h5.941v40.512H578.51L578.51,549.676z M563.385,519.697l-20.525,29.979h20.525V519.697z M442.119,618.816
	l-3.24,17.555l0.27,0.271c1.351-1.621,2.971-2.701,5.132-3.241c2.16-0.811,4.321-1.08,6.212-1.08c2.7,0,5.401,0.54,7.563,1.35
	c2.431,0.811,4.591,2.161,6.211,4.052c1.891,1.891,3.241,4.051,4.321,6.481c1.081,2.431,1.621,5.672,1.621,9.183
	c0,2.701-0.54,5.132-1.351,7.563s-2.16,4.592-4.051,6.482s-4.052,3.511-6.752,4.591c-2.701,1.08-5.672,1.621-9.453,1.621
	c-2.701,0-5.132-0.271-7.563-1.081c-2.431-0.81-4.321-1.891-6.212-3.24c-1.891-1.351-3.24-3.241-4.321-5.402
	c-1.08-2.16-1.62-4.591-1.62-7.562h7.292c0,1.62,0.54,2.971,1.08,4.321c0.54,1.35,1.621,2.431,2.701,3.511s2.431,1.891,4.051,2.431
	c1.621,0.54,3.241,0.811,5.132,0.811c1.62,0,3.511-0.271,4.861-0.811c1.62-0.54,2.971-1.62,4.052-2.701
	c1.08-1.08,2.16-2.7,2.7-4.591c0.811-1.891,1.08-4.052,1.08-6.482c0-1.891-0.27-3.78-1.08-5.671s-1.62-3.241-2.7-4.321
	c-1.081-1.081-2.701-2.161-4.322-2.972c-1.62-0.81-3.511-1.08-5.671-1.08c-2.431,0-4.592,0.54-6.482,1.621
	c-1.891,1.08-3.511,2.431-4.861,4.321l-6.212-0.271l5.672-31.869h30.249v6.481h-24.308V618.816z M314.372,658.517
	c-1.891-1.62-4.052-2.431-7.022-2.431c-3.24,0-5.671,0.811-7.562,2.161c-1.891,1.35-3.511,3.511-4.321,5.671
	c-0.811,2.161-1.891,4.862-2.161,7.563c-0.27,2.701-0.54,5.132-0.81,7.563l0.27,0.27c1.621-2.7,3.781-4.861,6.481-6.211
	c2.431-1.351,5.402-1.891,8.913-1.891c2.971,0,5.672,0.54,7.832,1.62c2.431,1.08,4.321,2.431,5.942,4.321
	c1.62,1.891,2.7,3.781,3.78,6.212c0.811,2.431,1.351,5.132,1.351,7.832c0,2.161-0.27,4.592-1.08,7.022s-1.891,4.591-3.511,6.481
	c-1.621,1.891-3.781,3.512-6.212,4.861c-2.701,1.351-5.942,1.891-9.723,1.891c-4.592,0-8.103-0.81-11.073-2.7
	s-4.861-4.321-6.482-7.022c-1.62-2.971-2.431-5.941-2.971-9.453c-0.54-3.511-0.811-6.752-0.811-9.992
	c0-4.321,0.271-8.373,1.081-12.154c0.81-4.051,1.891-7.562,3.781-10.533c1.62-2.971,4.051-5.401,7.021-7.292s6.481-2.7,10.803-2.7
	c5.132,0,9.183,1.351,12.154,4.051c2.971,2.701,4.591,6.482,5.131,11.613h-7.292C317.343,662.299,316.263,660.138,314.372,658.517
	L314.372,658.517z M301.138,678.773c-1.62,0.811-2.971,1.621-4.051,2.971c-1.08,1.351-1.891,2.701-2.431,4.321
	c-0.54,1.621-0.811,3.512-0.811,5.402s0.271,3.78,0.811,5.401c0.54,1.62,1.351,3.241,2.431,4.321s2.431,2.16,4.051,2.971
	c1.621,0.811,3.512,1.08,5.402,1.08s3.78-0.27,5.401-1.08c1.62-0.811,2.7-1.62,3.781-2.971c1.08-1.351,1.891-2.701,2.431-4.321
	c0.54-1.621,0.81-3.241,0.81-5.132s-0.27-3.781-0.81-5.401s-1.351-3.241-2.161-4.321c-1.08-1.351-2.431-2.161-3.781-2.971
	c-1.35-0.811-3.24-1.08-5.401-1.08C304.379,677.693,302.759,678.233,301.138,678.773L301.138,678.773z M175.281,629.619
	c-2.701,4.321-5.132,8.643-7.292,13.504c-2.161,4.861-3.781,9.723-5.132,14.854s-2.16,9.993-2.431,14.854h-8.103
	c0.271-5.132,1.081-10.263,2.431-15.125c1.351-4.861,2.972-9.723,5.132-14.044c2.161-4.321,4.592-8.912,7.292-12.964
	c2.701-4.051,5.672-7.832,8.913-11.073h-31.6v-7.292h39.702v6.212C180.953,621.787,177.983,625.298,175.281,629.619L175.281,629.619
	z M41.052,518.076c1.08-1.891,2.431-3.511,4.051-4.861c1.621-1.351,3.512-2.431,5.672-2.971c2.161-0.811,4.321-1.08,6.752-1.08
	c3.241,0,6.212,0.54,8.643,1.351c2.431,0.81,4.321,2.16,5.672,3.511s2.431,3.241,3.241,5.131c0.81,1.891,1.08,3.781,1.08,5.672
	c0,2.701-0.811,5.402-2.16,7.563c-1.351,2.16-3.512,4.051-6.212,5.132c3.781,1.08,6.481,2.971,8.102,5.671
	c1.621,2.701,2.701,5.942,2.701,9.724c0,2.971-0.54,5.671-1.62,7.832c-1.081,2.431-2.431,4.321-4.321,5.941
	c-1.891,1.621-4.052,2.701-6.482,3.512c-2.431,0.81-5.131,1.08-7.832,1.08c-2.971,0-5.672-0.271-8.103-1.08
	c-2.431-0.811-4.861-1.891-6.481-3.512c-1.621-1.62-3.241-3.511-4.321-5.941c-1.081-2.431-1.621-5.132-1.621-8.103
	c0-3.511,0.811-6.752,2.701-9.453c1.891-2.7,4.592-4.591,7.832-5.941c-2.7-1.08-4.591-2.701-6.212-5.132
	c-1.62-2.431-2.431-4.861-2.431-7.562C39.432,522.128,39.972,519.967,41.052,518.076L41.052,518.076z M48.884,561.829
	c2.431,2.161,5.672,3.241,9.453,3.241c1.891,0,3.511-0.271,5.132-0.811c1.62-0.54,2.971-1.351,4.051-2.431s1.891-2.431,2.701-3.781
	c0.81-1.35,0.81-2.971,0.81-4.861c0-1.62-0.27-3.241-1.08-4.591c-0.811-1.351-1.62-2.701-2.7-3.781
	c-1.081-1.08-2.432-1.891-4.052-2.431s-3.241-0.811-4.861-0.811c-1.891,0-3.511,0.271-5.132,0.811
	c-1.62,0.54-2.971,1.351-4.051,2.431s-2.161,2.16-2.701,3.781c-0.54,1.35-1.08,2.971-1.08,4.861
	C45.103,556.698,46.184,559.669,48.884,561.829L48.884,561.829z M48.074,529.42c0.54,1.351,1.35,2.16,2.431,2.971
	c1.08,0.811,2.16,1.351,3.511,1.891c1.351,0.27,2.701,0.54,4.321,0.54c2.971,0,5.401-0.811,7.292-2.701
	c1.891-1.62,2.971-4.051,2.971-7.292c0-3.24-1.08-5.401-2.971-7.021c-1.891-1.621-4.321-2.431-7.292-2.431
	c-1.351,0-2.701,0.27-4.051,0.54c-1.351,0.27-2.431,1.08-3.512,1.891c-1.08,0.81-1.62,1.891-2.16,2.971s-0.811,2.431-0.811,4.051
	C47.264,526.719,47.534,528.069,48.074,529.42z M12.154,418.146c2.16,1.621,4.592,2.431,7.563,2.431
	c4.591,0,7.832-1.891,9.992-5.941c2.161-4.051,3.512-9.723,3.781-17.825l-0.27-0.271c-1.351,2.701-3.241,4.592-5.942,6.212
	c-2.431,1.621-5.401,2.161-8.372,2.161c-3.241,0-5.941-0.54-8.372-1.621c-2.431-1.08-4.321-2.431-6.212-4.321
	c-1.621-1.89-2.971-4.051-3.781-6.481s-1.351-5.401-1.351-8.372c0-2.972,0.54-5.672,1.351-8.103c1.08-2.431,2.431-4.592,4.051-6.212
	c1.891-1.891,4.052-3.241,6.482-4.052c2.431-1.08,5.131-1.35,8.103-1.35c2.971,0,5.671,0.54,8.102,1.35
	c2.431,0.811,4.862,2.431,6.752,4.592c1.891,2.16,3.512,5.132,4.592,8.913c1.08,3.78,1.62,8.642,1.62,14.313
	c0,10.533-1.62,18.636-5.131,24.308c-3.241,5.672-8.643,8.643-16.205,8.643c-5.132,0-9.453-1.351-12.693-3.781
	c-3.241-2.431-5.402-6.482-5.672-11.884h7.292C8.912,414.095,10.263,416.526,12.154,418.146L12.154,418.146z M31.599,379.796
	c-0.54-1.621-1.35-3.241-2.431-4.321c-1.08-1.081-2.431-2.431-4.051-2.972c-1.62-0.81-3.241-1.08-5.401-1.08
	c-2.161,0-4.052,0.271-5.672,1.08c-1.62,0.811-2.701,1.891-3.781,3.241s-1.62,2.971-2.16,4.592c-0.541,1.62-0.541,3.511-0.541,5.401
	c0,1.62,0.271,3.241,0.811,4.861s1.351,2.971,2.431,4.051c1.08,1.081,2.431,2.161,3.781,2.972c1.351,0.81,2.971,1.08,4.861,1.08
	s3.511-0.271,5.132-1.08c1.62-0.811,2.971-1.621,4.051-2.972c1.08-1.35,1.891-2.7,2.431-4.321c0.54-1.62,0.811-3.24,0.811-5.131
	C32.409,383.306,32.14,381.416,31.599,379.796z M36.731,285.538v-43.753H21.067v-5.942c2.16,0,4.051-0.27,5.941-0.54
	c1.891-0.27,3.781-0.81,5.401-1.891c1.62-0.81,2.971-2.16,4.052-3.511c1.08-1.62,1.89-3.511,2.16-5.672h5.672v61.309H36.731z
	 M59.148,248.537c0-2.431,0.27-4.861,0.81-7.022c0.54-2.431,1.081-4.591,1.891-6.481c0.811-2.161,2.161-3.781,3.512-5.401
	c1.62-1.621,3.511-2.701,5.671-3.781c2.161-1.081,5.132-1.351,8.103-1.351c3.241,0,5.942,0.54,8.103,1.351
	c2.161,0.81,4.051,2.16,5.672,3.781c1.62,1.62,2.7,3.24,3.511,5.401c0.811,2.16,1.62,4.321,1.891,6.481
	c0.54,2.431,0.811,4.592,0.811,7.022s0.27,4.861,0.27,7.021c0,2.161,0,4.592-0.27,7.022c-0.271,2.431-0.271,4.861-0.811,7.022
	c-0.54,2.431-1.08,4.591-1.891,6.481s-2.16,3.781-3.511,5.401c-1.621,1.621-3.241,2.701-5.672,3.781s-4.861,1.351-8.103,1.351
	s-5.941-0.54-8.103-1.351c-2.16-0.811-4.051-2.16-5.671-3.781c-1.621-1.62-2.701-3.24-3.512-5.401
	c-0.81-2.16-1.62-4.321-1.891-6.481c-0.54-2.431-0.81-4.592-0.81-7.022s-0.271-4.861-0.271-7.022
	C59.148,253.398,59.148,250.968,59.148,248.537z M66.98,263.121c0.271,2.971,0.54,5.401,1.351,8.103
	c0.81,2.431,2.16,4.591,3.781,6.481c1.62,1.891,4.051,2.701,7.292,2.701s5.401-0.811,7.292-2.701s2.971-3.78,3.781-6.481
	c0.81-2.431,1.351-5.132,1.351-8.103c0.27-2.971,0.27-5.401,0.27-7.832v-4.861c0-1.891-0.27-3.512-0.54-5.401
	c-0.271-1.891-0.54-3.512-1.08-5.402c-0.54-1.62-1.08-3.24-2.161-4.591c-1.08-1.351-2.16-2.431-3.511-3.241s-3.241-1.08-5.401-1.08
	c-2.161,0-3.781,0.27-5.401,1.08c-1.351,0.811-2.701,1.891-3.512,3.241c-1.08,1.351-1.62,2.7-2.16,4.591
	c-0.54,1.621-0.811,3.512-1.08,5.402c-0.271,1.89-0.271,3.511-0.541,5.401v4.861C66.98,257.719,66.98,260.421,66.98,263.121
	L66.98,263.121z"/>
<g>
	<path fill="#FFFFFF" d="M144.492,183.448v-44.023h-15.935v-5.941c2.16,0,4.051-0.271,5.941-0.54
		c1.891-0.271,3.781-0.811,5.402-1.891c1.62-0.811,2.971-2.161,4.051-3.512c1.08-1.62,1.891-3.511,2.16-5.671h5.672v61.308h-7.292
		V183.448z M186.625,183.448v-44.023H170.69v-5.941c2.161,0,4.052-0.271,5.942-0.54c1.891-0.271,3.781-0.811,5.401-1.891
		c1.62-0.811,2.971-2.161,4.051-3.512c1.081-1.62,1.891-3.511,2.161-5.671h5.672v61.308h-7.292V183.448z"/>
</g>
</svg>
